# xmcd CD database file
#
# Track frame offsets:
#	150
#	13254
#	26769
#	42575
#	54585
#	73658
#	89945
#	121269
#	136309
#	156723
#	175385
#	190268
#	213312
#
# Disc length: 2998 seconds
#
# Revision: 5
# Processed by: cddbd v1.5.1PL0 Copyright (c) Steve Scherf et al.
# Submitted via: CDex 1.51
#
DISCID=cb0bb40d
DTITLE=Richie Kotzen - Mother Head's Family Reunion
DYEAR=1994
DGENRE=Rock
TTITLE0=Socialite
TTITLE1=Mother Head's Family Reunion
TTITLE2=Where Did Our Love Go
TTITLE3=Natural Thing
TTITLE4=A Love Divine
TTITLE5=Soul To Soul
TTITLE6=Reach Out I'll Be There
TTITLE7=Testify
TTITLE8=Used
TTITLE9=A Woman and Man
TTITLE10=Livin' Easy
TTITLE11=Cover Me
TTITLE12=Wailing Wall(only japanese eds.)
EXTD=YEAR: 1994
EXTT0=
EXTT1=
EXTT2=
EXTT3=
EXTT4=
EXTT5=
EXTT6=
EXTT7=
EXTT8=
EXTT9=
EXTT10=
EXTT11=
EXTT12=
PLAYORDER=
